<mxfile host="app.diagrams.net" agent="Mozilla/5.0 (Windows NT 10.0; Win64; x64) AppleWebKit/537.36 (KHTML, like Gecko) Chrome/129.0.0.0 Safari/537.36 Edg/129.0.0.0" modified="2024-10-04T19:45:07.629Z" version="24.2.5" etag="j-zSyHSFfgqe_XCHzUo6" type="device">
  <diagram id="C5RBs43oDa-KdzZeNtuy" name="Page-1">
    <mxGraphModel dx="1508" dy="1794" grid="1" gridSize="10" guides="1" tooltips="1" connect="1" arrows="1" fold="1" page="1" pageScale="1" pageWidth="827" pageHeight="1169" math="0" shadow="0">
      <root>
        <mxCell id="WIyWlLk6GJQsqaUBKTNV-0" />
        <mxCell id="WIyWlLk6GJQsqaUBKTNV-1" parent="WIyWlLk6GJQsqaUBKTNV-0" />
        <mxCell id="y7YLqHCvPRz2LovTveIE-11" value="" style="rounded=0;whiteSpace=wrap;html=1;fillColor=#dae8fc;strokeColor=#6c8ebf;" parent="WIyWlLk6GJQsqaUBKTNV-1" vertex="1">
          <mxGeometry x="160" y="-50" width="330" height="150" as="geometry" />
        </mxCell>
        <mxCell id="y7YLqHCvPRz2LovTveIE-8" value="" style="rounded=0;whiteSpace=wrap;html=1;fillColor=#dae8fc;strokeColor=#6c8ebf;" parent="WIyWlLk6GJQsqaUBKTNV-1" vertex="1">
          <mxGeometry x="370" y="240" width="550" height="800" as="geometry" />
        </mxCell>
        <mxCell id="y7YLqHCvPRz2LovTveIE-13" style="edgeStyle=orthogonalEdgeStyle;rounded=0;orthogonalLoop=1;jettySize=auto;html=1;exitX=0.5;exitY=1;exitDx=0;exitDy=0;entryX=0.5;entryY=0;entryDx=0;entryDy=0;" parent="WIyWlLk6GJQsqaUBKTNV-1" source="WIyWlLk6GJQsqaUBKTNV-3" target="WIyWlLk6GJQsqaUBKTNV-6" edge="1">
          <mxGeometry relative="1" as="geometry" />
        </mxCell>
        <mxCell id="WIyWlLk6GJQsqaUBKTNV-3" value="User opens Precipi-Tracker via web browser" style="rounded=1;whiteSpace=wrap;html=1;fontSize=12;glass=0;strokeWidth=1;shadow=0;" parent="WIyWlLk6GJQsqaUBKTNV-1" vertex="1">
          <mxGeometry x="180" y="40" width="160" height="50" as="geometry" />
        </mxCell>
        <mxCell id="WIyWlLk6GJQsqaUBKTNV-4" value="" style="rounded=0;html=1;jettySize=auto;orthogonalLoop=1;fontSize=11;endArrow=block;endFill=0;endSize=8;strokeWidth=1;shadow=0;labelBackgroundColor=none;edgeStyle=orthogonalEdgeStyle;" parent="WIyWlLk6GJQsqaUBKTNV-1" source="WIyWlLk6GJQsqaUBKTNV-6" edge="1">
          <mxGeometry y="20" relative="1" as="geometry">
            <mxPoint as="offset" />
            <mxPoint x="470" y="430" as="targetPoint" />
          </mxGeometry>
        </mxCell>
        <mxCell id="y7YLqHCvPRz2LovTveIE-34" value="Yes" style="edgeLabel;html=1;align=center;verticalAlign=middle;resizable=0;points=[];" parent="WIyWlLk6GJQsqaUBKTNV-4" vertex="1" connectable="0">
          <mxGeometry x="-0.2397" y="2" relative="1" as="geometry">
            <mxPoint as="offset" />
          </mxGeometry>
        </mxCell>
        <mxCell id="y7YLqHCvPRz2LovTveIE-29" style="edgeStyle=orthogonalEdgeStyle;rounded=0;orthogonalLoop=1;jettySize=auto;html=1;exitX=1;exitY=0.5;exitDx=0;exitDy=0;entryX=0;entryY=0.5;entryDx=0;entryDy=0;" parent="WIyWlLk6GJQsqaUBKTNV-1" source="WIyWlLk6GJQsqaUBKTNV-6" target="y7YLqHCvPRz2LovTveIE-17" edge="1">
          <mxGeometry relative="1" as="geometry" />
        </mxCell>
        <mxCell id="y7YLqHCvPRz2LovTveIE-32" value="No" style="edgeLabel;html=1;align=center;verticalAlign=middle;resizable=0;points=[];" parent="y7YLqHCvPRz2LovTveIE-29" vertex="1" connectable="0">
          <mxGeometry x="-0.1111" y="-1" relative="1" as="geometry">
            <mxPoint as="offset" />
          </mxGeometry>
        </mxCell>
        <mxCell id="WIyWlLk6GJQsqaUBKTNV-6" value="Regional?" style="rhombus;whiteSpace=wrap;html=1;shadow=0;fontFamily=Helvetica;fontSize=12;align=center;strokeWidth=1;spacing=6;spacingTop=-4;" parent="WIyWlLk6GJQsqaUBKTNV-1" vertex="1">
          <mxGeometry x="420" y="290" width="100" height="80" as="geometry" />
        </mxCell>
        <mxCell id="WIyWlLk6GJQsqaUBKTNV-11" value="Display Rainfall Data for Selected Region" style="rounded=1;whiteSpace=wrap;html=1;fontSize=12;glass=0;strokeWidth=1;shadow=0;" parent="WIyWlLk6GJQsqaUBKTNV-1" vertex="1">
          <mxGeometry x="400" y="959" width="140" height="50" as="geometry" />
        </mxCell>
        <mxCell id="y7YLqHCvPRz2LovTveIE-9" value="Determine which view the user wants" style="text;html=1;align=center;verticalAlign=middle;whiteSpace=wrap;rounded=0;strokeColor=default;" parent="WIyWlLk6GJQsqaUBKTNV-1" vertex="1">
          <mxGeometry x="640" y="250" width="260" height="30" as="geometry" />
        </mxCell>
        <mxCell id="y7YLqHCvPRz2LovTveIE-12" value="User wants to view precipitation data via Precipi-Tracker" style="text;html=1;align=center;verticalAlign=middle;whiteSpace=wrap;rounded=0;strokeColor=default;" parent="WIyWlLk6GJQsqaUBKTNV-1" vertex="1">
          <mxGeometry x="220" y="-20" width="260" height="40" as="geometry" />
        </mxCell>
        <mxCell id="y7YLqHCvPRz2LovTveIE-30" style="edgeStyle=orthogonalEdgeStyle;rounded=0;orthogonalLoop=1;jettySize=auto;html=1;exitX=1;exitY=0.5;exitDx=0;exitDy=0;entryX=0;entryY=0.5;entryDx=0;entryDy=0;" parent="WIyWlLk6GJQsqaUBKTNV-1" source="y7YLqHCvPRz2LovTveIE-17" target="y7YLqHCvPRz2LovTveIE-18" edge="1">
          <mxGeometry relative="1" as="geometry" />
        </mxCell>
        <mxCell id="y7YLqHCvPRz2LovTveIE-33" value="No" style="edgeLabel;html=1;align=center;verticalAlign=middle;resizable=0;points=[];" parent="y7YLqHCvPRz2LovTveIE-30" vertex="1" connectable="0">
          <mxGeometry x="-0.0303" relative="1" as="geometry">
            <mxPoint as="offset" />
          </mxGeometry>
        </mxCell>
        <mxCell id="y7YLqHCvPRz2LovTveIE-37" style="edgeStyle=orthogonalEdgeStyle;rounded=0;orthogonalLoop=1;jettySize=auto;html=1;exitX=0.5;exitY=1;exitDx=0;exitDy=0;entryX=0.5;entryY=0;entryDx=0;entryDy=0;" parent="WIyWlLk6GJQsqaUBKTNV-1" source="y7YLqHCvPRz2LovTveIE-17" target="y7YLqHCvPRz2LovTveIE-35" edge="1">
          <mxGeometry relative="1" as="geometry" />
        </mxCell>
        <mxCell id="y7YLqHCvPRz2LovTveIE-49" value="Yes" style="edgeLabel;html=1;align=center;verticalAlign=middle;resizable=0;points=[];" parent="y7YLqHCvPRz2LovTveIE-37" vertex="1" connectable="0">
          <mxGeometry x="-0.2" y="1" relative="1" as="geometry">
            <mxPoint as="offset" />
          </mxGeometry>
        </mxCell>
        <mxCell id="y7YLqHCvPRz2LovTveIE-17" value="State?" style="rhombus;whiteSpace=wrap;html=1;shadow=0;fontFamily=Helvetica;fontSize=12;align=center;strokeWidth=1;spacing=6;spacingTop=-4;" parent="WIyWlLk6GJQsqaUBKTNV-1" vertex="1">
          <mxGeometry x="585" y="290" width="100" height="80" as="geometry" />
        </mxCell>
        <mxCell id="y7YLqHCvPRz2LovTveIE-39" style="edgeStyle=orthogonalEdgeStyle;rounded=0;orthogonalLoop=1;jettySize=auto;html=1;exitX=0.5;exitY=1;exitDx=0;exitDy=0;entryX=0.5;entryY=0;entryDx=0;entryDy=0;" parent="WIyWlLk6GJQsqaUBKTNV-1" source="y7YLqHCvPRz2LovTveIE-18" target="y7YLqHCvPRz2LovTveIE-36" edge="1">
          <mxGeometry relative="1" as="geometry" />
        </mxCell>
        <mxCell id="y7YLqHCvPRz2LovTveIE-50" value="Yes" style="edgeLabel;html=1;align=center;verticalAlign=middle;resizable=0;points=[];" parent="y7YLqHCvPRz2LovTveIE-39" vertex="1" connectable="0">
          <mxGeometry x="-0.2333" relative="1" as="geometry">
            <mxPoint as="offset" />
          </mxGeometry>
        </mxCell>
        <mxCell id="y7YLqHCvPRz2LovTveIE-18" value="County?" style="rhombus;whiteSpace=wrap;html=1;shadow=0;fontFamily=Helvetica;fontSize=12;align=center;strokeWidth=1;spacing=6;spacingTop=-4;" parent="WIyWlLk6GJQsqaUBKTNV-1" vertex="1">
          <mxGeometry x="750" y="290" width="100" height="80" as="geometry" />
        </mxCell>
        <mxCell id="y7YLqHCvPRz2LovTveIE-45" style="edgeStyle=orthogonalEdgeStyle;rounded=0;orthogonalLoop=1;jettySize=auto;html=1;exitX=0.5;exitY=1;exitDx=0;exitDy=0;entryX=0.25;entryY=0;entryDx=0;entryDy=0;" parent="WIyWlLk6GJQsqaUBKTNV-1" source="y7YLqHCvPRz2LovTveIE-21" target="IS0FAb-bLDUR4cMqlhwI-0" edge="1">
          <mxGeometry relative="1" as="geometry" />
        </mxCell>
        <mxCell id="y7YLqHCvPRz2LovTveIE-21" value="&lt;div&gt;User Chooses Specific Region&lt;br&gt;&lt;/div&gt;&lt;div&gt;(e.g., NorthEast)&lt;br&gt;&lt;/div&gt;" style="rounded=1;whiteSpace=wrap;html=1;fontSize=12;glass=0;strokeWidth=1;shadow=0;" parent="WIyWlLk6GJQsqaUBKTNV-1" vertex="1">
          <mxGeometry x="400" y="430" width="140" height="80" as="geometry" />
        </mxCell>
        <mxCell id="IS0FAb-bLDUR4cMqlhwI-4" value="" style="edgeStyle=orthogonalEdgeStyle;rounded=0;orthogonalLoop=1;jettySize=auto;html=1;entryX=0.5;entryY=0;entryDx=0;entryDy=0;" edge="1" parent="WIyWlLk6GJQsqaUBKTNV-1" source="y7YLqHCvPRz2LovTveIE-35" target="IS0FAb-bLDUR4cMqlhwI-0">
          <mxGeometry relative="1" as="geometry" />
        </mxCell>
        <mxCell id="y7YLqHCvPRz2LovTveIE-35" value="User Chooses Specific State (e.g., Texas)" style="rounded=1;whiteSpace=wrap;html=1;fontSize=12;glass=0;strokeWidth=1;shadow=0;" parent="WIyWlLk6GJQsqaUBKTNV-1" vertex="1">
          <mxGeometry x="565" y="430" width="140" height="80" as="geometry" />
        </mxCell>
        <mxCell id="y7YLqHCvPRz2LovTveIE-47" style="edgeStyle=orthogonalEdgeStyle;rounded=0;orthogonalLoop=1;jettySize=auto;html=1;exitX=0.5;exitY=1;exitDx=0;exitDy=0;entryX=0.75;entryY=0;entryDx=0;entryDy=0;" parent="WIyWlLk6GJQsqaUBKTNV-1" source="y7YLqHCvPRz2LovTveIE-36" target="IS0FAb-bLDUR4cMqlhwI-0" edge="1">
          <mxGeometry relative="1" as="geometry" />
        </mxCell>
        <mxCell id="y7YLqHCvPRz2LovTveIE-36" value="&lt;div&gt;User Chooses Specific County (e.g., Washington County, Vermont)&lt;br&gt;&lt;/div&gt;" style="rounded=1;whiteSpace=wrap;html=1;fontSize=12;glass=0;strokeWidth=1;shadow=0;" parent="WIyWlLk6GJQsqaUBKTNV-1" vertex="1">
          <mxGeometry x="730" y="430" width="140" height="80" as="geometry" />
        </mxCell>
        <mxCell id="y7YLqHCvPRz2LovTveIE-42" value="Display Rainfall Data for Selected State" style="rounded=1;whiteSpace=wrap;html=1;fontSize=12;glass=0;strokeWidth=1;shadow=0;" parent="WIyWlLk6GJQsqaUBKTNV-1" vertex="1">
          <mxGeometry x="570" y="959" width="140" height="50" as="geometry" />
        </mxCell>
        <mxCell id="y7YLqHCvPRz2LovTveIE-43" value="Display Rainfall Data for Selected County" style="rounded=1;whiteSpace=wrap;html=1;fontSize=12;glass=0;strokeWidth=1;shadow=0;" parent="WIyWlLk6GJQsqaUBKTNV-1" vertex="1">
          <mxGeometry x="730" y="959" width="140" height="50" as="geometry" />
        </mxCell>
        <mxCell id="IS0FAb-bLDUR4cMqlhwI-0" value="" style="rounded=0;whiteSpace=wrap;html=1;fillColor=#dae8fc;strokeColor=#6c8ebf;" vertex="1" parent="WIyWlLk6GJQsqaUBKTNV-1">
          <mxGeometry x="470" y="585" width="330" height="335" as="geometry" />
        </mxCell>
        <mxCell id="IS0FAb-bLDUR4cMqlhwI-12" value="" style="edgeStyle=none;rounded=0;orthogonalLoop=1;jettySize=auto;html=1;" edge="1" parent="WIyWlLk6GJQsqaUBKTNV-1" source="IS0FAb-bLDUR4cMqlhwI-2" target="IS0FAb-bLDUR4cMqlhwI-3">
          <mxGeometry relative="1" as="geometry" />
        </mxCell>
        <mxCell id="IS0FAb-bLDUR4cMqlhwI-2" value="Wishes to change the date selected to use for data" style="text;html=1;align=center;verticalAlign=middle;whiteSpace=wrap;rounded=0;strokeColor=default;" vertex="1" parent="WIyWlLk6GJQsqaUBKTNV-1">
          <mxGeometry x="480" y="787" width="150" height="30" as="geometry" />
        </mxCell>
        <mxCell id="IS0FAb-bLDUR4cMqlhwI-3" value="User changes the date range selected" style="rounded=1;whiteSpace=wrap;html=1;fontSize=12;glass=0;strokeWidth=1;shadow=0;" vertex="1" parent="WIyWlLk6GJQsqaUBKTNV-1">
          <mxGeometry x="480" y="837" width="150" height="43" as="geometry" />
        </mxCell>
        <mxCell id="IS0FAb-bLDUR4cMqlhwI-9" value="" style="edgeStyle=none;rounded=0;orthogonalLoop=1;jettySize=auto;html=1;" edge="1" parent="WIyWlLk6GJQsqaUBKTNV-1" source="IS0FAb-bLDUR4cMqlhwI-6" target="IS0FAb-bLDUR4cMqlhwI-8">
          <mxGeometry relative="1" as="geometry" />
        </mxCell>
        <mxCell id="IS0FAb-bLDUR4cMqlhwI-10" value="" style="edgeStyle=none;rounded=0;orthogonalLoop=1;jettySize=auto;html=1;entryX=0.5;entryY=0;entryDx=0;entryDy=0;" edge="1" parent="WIyWlLk6GJQsqaUBKTNV-1" source="IS0FAb-bLDUR4cMqlhwI-6" target="IS0FAb-bLDUR4cMqlhwI-7">
          <mxGeometry relative="1" as="geometry" />
        </mxCell>
        <mxCell id="IS0FAb-bLDUR4cMqlhwI-6" value="Change date?" style="whiteSpace=wrap;html=1;" vertex="1" parent="WIyWlLk6GJQsqaUBKTNV-1">
          <mxGeometry x="575" y="590" width="120" height="60" as="geometry" />
        </mxCell>
        <mxCell id="IS0FAb-bLDUR4cMqlhwI-11" value="" style="edgeStyle=none;rounded=0;orthogonalLoop=1;jettySize=auto;html=1;entryX=0.5;entryY=0;entryDx=0;entryDy=0;" edge="1" parent="WIyWlLk6GJQsqaUBKTNV-1" source="IS0FAb-bLDUR4cMqlhwI-7" target="IS0FAb-bLDUR4cMqlhwI-2">
          <mxGeometry relative="1" as="geometry" />
        </mxCell>
        <mxCell id="IS0FAb-bLDUR4cMqlhwI-7" value="Yes" style="whiteSpace=wrap;html=1;" vertex="1" parent="WIyWlLk6GJQsqaUBKTNV-1">
          <mxGeometry x="575" y="690" width="45" height="30" as="geometry" />
        </mxCell>
        <mxCell id="IS0FAb-bLDUR4cMqlhwI-16" value="" style="edgeStyle=none;rounded=0;orthogonalLoop=1;jettySize=auto;html=1;" edge="1" parent="WIyWlLk6GJQsqaUBKTNV-1" source="IS0FAb-bLDUR4cMqlhwI-8" target="IS0FAb-bLDUR4cMqlhwI-15">
          <mxGeometry relative="1" as="geometry" />
        </mxCell>
        <mxCell id="IS0FAb-bLDUR4cMqlhwI-8" value="No" style="whiteSpace=wrap;html=1;" vertex="1" parent="WIyWlLk6GJQsqaUBKTNV-1">
          <mxGeometry x="655" y="690" width="40" height="30" as="geometry" />
        </mxCell>
        <mxCell id="IS0FAb-bLDUR4cMqlhwI-17" style="edgeStyle=orthogonalEdgeStyle;rounded=0;orthogonalLoop=1;jettySize=auto;html=1;exitX=0.5;exitY=1;exitDx=0;exitDy=0;entryX=0.5;entryY=0;entryDx=0;entryDy=0;" edge="1" parent="WIyWlLk6GJQsqaUBKTNV-1" source="IS0FAb-bLDUR4cMqlhwI-15" target="y7YLqHCvPRz2LovTveIE-42">
          <mxGeometry relative="1" as="geometry">
            <Array as="points">
              <mxPoint x="725" y="930" />
              <mxPoint x="640" y="930" />
            </Array>
          </mxGeometry>
        </mxCell>
        <mxCell id="IS0FAb-bLDUR4cMqlhwI-18" style="edgeStyle=orthogonalEdgeStyle;rounded=0;orthogonalLoop=1;jettySize=auto;html=1;exitX=0.25;exitY=1;exitDx=0;exitDy=0;entryX=0.5;entryY=0;entryDx=0;entryDy=0;" edge="1" parent="WIyWlLk6GJQsqaUBKTNV-1" source="IS0FAb-bLDUR4cMqlhwI-15" target="WIyWlLk6GJQsqaUBKTNV-11">
          <mxGeometry relative="1" as="geometry">
            <Array as="points">
              <mxPoint x="688" y="910" />
              <mxPoint x="470" y="910" />
            </Array>
          </mxGeometry>
        </mxCell>
        <mxCell id="IS0FAb-bLDUR4cMqlhwI-19" style="edgeStyle=orthogonalEdgeStyle;rounded=0;orthogonalLoop=1;jettySize=auto;html=1;exitX=0.75;exitY=1;exitDx=0;exitDy=0;entryX=0.5;entryY=0;entryDx=0;entryDy=0;" edge="1" parent="WIyWlLk6GJQsqaUBKTNV-1" source="IS0FAb-bLDUR4cMqlhwI-15" target="y7YLqHCvPRz2LovTveIE-43">
          <mxGeometry relative="1" as="geometry">
            <Array as="points">
              <mxPoint x="763" y="930" />
              <mxPoint x="800" y="930" />
            </Array>
          </mxGeometry>
        </mxCell>
        <mxCell id="IS0FAb-bLDUR4cMqlhwI-15" value="Wishes not to change the date selected to use for data" style="text;html=1;align=center;verticalAlign=middle;whiteSpace=wrap;rounded=0;strokeColor=default;" vertex="1" parent="WIyWlLk6GJQsqaUBKTNV-1">
          <mxGeometry x="650" y="787" width="150" height="30" as="geometry" />
        </mxCell>
        <mxCell id="IS0FAb-bLDUR4cMqlhwI-21" style="edgeStyle=orthogonalEdgeStyle;rounded=0;orthogonalLoop=1;jettySize=auto;html=1;entryX=0.75;entryY=0;entryDx=0;entryDy=0;exitX=0.5;exitY=1;exitDx=0;exitDy=0;" edge="1" parent="WIyWlLk6GJQsqaUBKTNV-1" source="IS0FAb-bLDUR4cMqlhwI-3" target="WIyWlLk6GJQsqaUBKTNV-11">
          <mxGeometry relative="1" as="geometry">
            <mxPoint x="698" y="827" as="sourcePoint" />
            <mxPoint x="480" y="969" as="targetPoint" />
            <Array as="points">
              <mxPoint x="555" y="924" />
              <mxPoint x="510" y="924" />
              <mxPoint x="510" y="940" />
              <mxPoint x="505" y="940" />
            </Array>
          </mxGeometry>
        </mxCell>
        <mxCell id="IS0FAb-bLDUR4cMqlhwI-22" style="edgeStyle=orthogonalEdgeStyle;rounded=0;orthogonalLoop=1;jettySize=auto;html=1;exitX=0.75;exitY=1;exitDx=0;exitDy=0;entryX=0.25;entryY=0;entryDx=0;entryDy=0;" edge="1" parent="WIyWlLk6GJQsqaUBKTNV-1" source="IS0FAb-bLDUR4cMqlhwI-3" target="y7YLqHCvPRz2LovTveIE-42">
          <mxGeometry relative="1" as="geometry">
            <mxPoint x="565" y="890" as="sourcePoint" />
            <mxPoint x="640" y="950" as="targetPoint" />
            <Array as="points" />
          </mxGeometry>
        </mxCell>
        <mxCell id="IS0FAb-bLDUR4cMqlhwI-23" style="edgeStyle=orthogonalEdgeStyle;rounded=0;orthogonalLoop=1;jettySize=auto;html=1;exitX=1;exitY=1;exitDx=0;exitDy=0;entryX=0.25;entryY=0;entryDx=0;entryDy=0;" edge="1" parent="WIyWlLk6GJQsqaUBKTNV-1" source="IS0FAb-bLDUR4cMqlhwI-3" target="y7YLqHCvPRz2LovTveIE-43">
          <mxGeometry relative="1" as="geometry">
            <mxPoint x="602" y="890" as="sourcePoint" />
            <mxPoint x="615" y="969" as="targetPoint" />
            <Array as="points" />
          </mxGeometry>
        </mxCell>
      </root>
    </mxGraphModel>
  </diagram>
</mxfile>
